<svg xmlns="http://www.w3.org/2000/svg" viewBox="0 0 64 64" width="64" height="64"><path d="M32 4c2 0 8 2 12 8 4 6 6 14 6 22s-2 14-6 18c-4 4-8 6-12 8-4-2-8-4-12-8-4-4-6-10-6-18s2-16 6-22c4-6 10-8 12-8z" fill="#e53935"/><path d="M28 2c0 0-2 4-2 6 0 2 1 3 3 3s3-1 3-3c0-2-2-6-2-6" fill="#43a047"/><path d="M36 2c0 0-2 4-2 6 0 2 1 3 3 3s3-1 3-3c0-2-2-6-2-6" fill="#388e3c"/><path d="M32 0c0 0-2 4-2 6 0 2 1 3 3 3s3-1 3-3c0-2-2-6-2-6" fill="#66bb6a"/><circle cx="26" cy="24" r="1.5" fill="#fff9c4" opacity="0.8"/><circle cx="34" cy="20" r="1.5" fill="#fff9c4" opacity="0.8"/><circle cx="30" cy="32" r="1.5" fill="#fff9c4" opacity="0.8"/><circle cx="38" cy="30" r="1.5" fill="#fff9c4" opacity="0.8"/><circle cx="24" cy="36" r="1.5" fill="#fff9c4" opacity="0.8"/><circle cx="32" cy="42" r="1.5" fill="#fff9c4" opacity="0.8"/><circle cx="28" cy="46" r="1.5" fill="#fff9c4" opacity="0.8"/><circle cx="36" cy="40" r="1.5" fill="#fff9c4" opacity="0.8"/><circle cx="22" cy="28" r="1.5" fill="#fff9c4" opacity="0.8"/></svg>
